{"title":"The Two Towers - SEE [DVDRip-XviD-Ita/Eng-Ac3-Sub/Ita/Eng][Tntvi","uid":5416002,"size":3124994722,"categoryP":"video","categoryS":"movies","magnet":"?xt=urn:btih:f1d9f84e6d95957fe5574f2699dfec218fb746ef&amp;dn=The+Two+Towers+-+SEE+%5BDVDRip-XviD-Ita%2FEng-Ac3-Sub%2FIta%2FEng%5D%5BTntvi&amp;tr=udp%3A%2F%2Ftracker.openbittorrent.com%3A80&amp;tr=udp%3A%2F%2Fopen.demonii.com%3A1337&amp;tr=udp%3A%2F%2Ftracker.coppersurfer.tk%3A6969&amp;tr=udp%3A%2F%2Fexodus.desync.com%3A6969","seeders":12,"leechers":2,"uploader":"maxneb","files":6,"time":1267918174,"description":"The Two Towers - SEE [DVDRip-XviD-Ita/Eng-Ac3-Sub/Ita/Eng][Tntvillage.Scambioetico]\n\n\n\nGeneral\nComplete name                    : C:Il Signore Degli Anelli - Le Due Torri - Special Extended Edition[DVDRip-XviD-Ita-Eng-Ac3] Le Due Torri - SEE - Parte 1 [RiP By MaX].avi\nFormat                           : AVI\nFormat/Info                      : Audio Video Interleave\nFile size                        : 1.34 GiB\nDuration                         : 1h 42mn\nOverall bit rate                 : 1 884 Kbps\nWriting application              : VirtualDubMod 1.5.10.2 (build 2542/release)\nWriting library                  : VirtualDubMod build 2542/release\n\nVideo\nID                               : 0\nFormat                           : MPEG-4 Visual\nFormat profile                   : Advanced Simple@L5\nFormat settings, BVOP            : Yes\nFormat settings, QPel            : No\nFormat settings, GMC             : No warppoints\nFormat settings, Matrix          : Default (H.263)\nCodec ID                         : XVID\nCodec ID/Hint                    : XviD\nDuration                         : 1h 42mn\nBit rate                         : 974 Kbps\nWidth                            : 640 pixels\nHeight                           : 272 pixels\nDisplay aspect ratio             : 2.35:1\nFrame rate                       : 25.000 fps\nResolution                       : 8 bits\nColorimetry                      : 4:2:0\nScan type                        : Progressive\nBits/(Pixel*Frame)               : 0.224\nStream size                      : 711 MiB (52%)\nWriting library                  : XviD 1.2.1 (UTC 2008-12-04)\n\nAudio #1\nID                               : 1\nFormat                           : AC-3\nFormat/Info                      : Audio Coding 3\nCodec ID                         : 2000\nDuration                         : 1h 42mn\nBit rate mode                    : Constant\nBit rate                         : 448 Kbps\nChannel(s)                       : 6 channels\nChannel positions                : Front: L C R, Surround: L R, LFE\nSampling rate                    : 48.0 KHz\nVideo delay                      : 24ms\nStream size                      : 327 MiB (24%)\nAlignment                        : Split accross interleaves\nInterleave, duration             : 40 ms (1.00 video frame)\nInterleave, preload duration     : 500 ms\n\nAudio #2\nID                               : 2\nFormat                           : AC-3\nFormat/Info                      : Audio Coding 3\nCodec ID                         : 2000\nDuration                         : 1h 42mn\nBit rate mode                    : Constant\nBit rate                         : 448 Kbps\nChannel(s)                       : 6 channels\nChannel positions                : Front: L C R, Surround: L R, LFE\nSampling rate                    : 48.0 KHz\nVideo delay                      : 25ms\nStream size                      : 327 MiB (24%)\nAlignment                        : Split accross interleaves\nInterleave, duration             : 40 ms (1.00 video frame)\nInterleave, preload duration     : 500 ms","torrent":{"xt":"urn:btih:f1d9f84e6d95957fe5574f2699dfec218fb746ef","amp;dn":"The+Two+Towers+-+SEE+%5BDVDRip-XviD-Ita%2FEng-Ac3-Sub%2FIta%2FEng%5D%5BTntvi","amp;tr":["udp%3A%2F%2Ftracker.openbittorrent.com%3A80","udp%3A%2F%2Fopen.demonii.com%3A1337","udp%3A%2F%2Ftracker.coppersurfer.tk%3A6969","udp%3A%2F%2Fexodus.desync.com%3A6969"],"infoHash":"f1d9f84e6d95957fe5574f2699dfec218fb746ef","infoHashBuffer":{"type":"Buffer","data":[241,217,248,78,109,149,149,127,229,87,79,38,153,223,236,33,143,183,70,239]},"announce":[],"urlList":[]}}